<svg width="6090" height="3876" viewBox="0 0 6090 3876" fill="none" xmlns="http://www.w3.org/2000/svg">
<path d="M5289.54 1438.78C5299.92 1446.51 5430.15 1434.43 5452.3 1432.14C5467.31 1418.87 5464.53 1419.05 5471.34 1435.4C5463.55 1357.65 5460.34 1280.2 5448.45 1202.73C5423.84 1198.32 5403.15 1199.77 5378.37 1202.73C5349.56 1241.16 5293.29 1390.48 5289.54 1438.78Z" fill="#121212"/>
<path d="M5289.54 1438.78C5299.92 1446.51 5430.15 1434.43 5452.3 1432.14C5467.31 1418.87 5464.53 1419.05 5471.34 1435.4C5463.55 1357.65 5460.34 1280.2 5448.45 1202.73C5423.84 1198.32 5403.15 1199.77 5378.37 1202.73C5349.56 1241.16 5293.29 1390.48 5289.54 1438.78Z" stroke="#F2F3F5"/>
<path d="M4231.61 2063.69C4319.85 2171.47 4477.8 2197.39 4597.66 2123.68C4717.53 2049.95 4760.76 1900.44 4697.84 1777.07C4634.94 1653.71 4486.13 1596.22 4352.95 1643.85C4219.77 1691.47 4145.1 1828.86 4179.93 1962.33C4189.54 1999.25 4207.15 2033.85 4231.61 2063.69ZM4486.25 1849.36C4479.63 1844.43 4471.91 1840.93 4463.44 1839.2L4486.49 1662.03C4527.39 1668.22 4564.92 1684.33 4596.37 1707.76L4486.25 1849.36ZM4285.38 1721.01C4315.06 1694.61 4351.54 1675.35 4391.95 1665.84L4438.05 1839.8C4429.72 1841.82 4422.12 1845.63 4415.68 1850.73L4285.38 1721.01ZM4508.57 1891.82C4508.38 1883.37 4506.18 1875.35 4502.51 1868.27L4658.42 1776.07C4678.11 1808.82 4689.82 1846.63 4691.04 1887L4508.57 1891.82ZM4207.64 1912.2C4207.15 1906.2 4206.84 1900.21 4206.84 1894.08C4206.84 1859 4214.81 1825.76 4229.03 1795.86L4400.28 1870.35C4397.04 1877.31 4395.2 1884.98 4395.2 1893.07C4395.2 1893.42 4395.26 1893.78 4395.26 1894.14L4207.64 1912.2ZM4488.27 1935.27C4494.71 1930.05 4499.92 1923.45 4503.48 1915.95L4675.65 1976.89C4661.24 2013.93 4637.45 2046.51 4607.04 2071.9L4488.27 1935.27ZM4315.31 2089.79C4280.97 2067.73 4252.89 2037.41 4233.88 2001.8L4401.39 1918.04C4405.26 1925.35 4410.78 1931.71 4417.45 1936.7L4315.31 2089.79ZM4449.03 2128.84C4433.58 2128.84 4418.56 2127.36 4403.91 2124.69L4440.57 1946.99C4444.2 1947.7 4447.99 1948.06 4451.92 1948.06C4456.63 1948.06 4461.24 1947.46 4465.59 1946.4L4524.57 2117.14C4500.79 2124.69 4475.4 2128.84 4449.03 2128.84Z" fill="#040606"/>
<path d="M4231.61 2063.69C4319.85 2171.47 4477.8 2197.39 4597.66 2123.68C4717.53 2049.95 4760.76 1900.44 4697.84 1777.07C4634.94 1653.71 4486.13 1596.22 4352.95 1643.85C4219.77 1691.47 4145.1 1828.86 4179.93 1962.33C4189.54 1999.25 4207.15 2033.85 4231.61 2063.69ZM4486.25 1849.36C4479.63 1844.43 4471.91 1840.93 4463.44 1839.2L4486.49 1662.03C4527.39 1668.22 4564.92 1684.33 4596.37 1707.76L4486.25 1849.36ZM4285.38 1721.01C4315.06 1694.61 4351.54 1675.35 4391.95 1665.84L4438.05 1839.8C4429.72 1841.82 4422.12 1845.63 4415.68 1850.73L4285.38 1721.01ZM4508.57 1891.82C4508.38 1883.37 4506.18 1875.35 4502.51 1868.27L4658.42 1776.07C4678.11 1808.82 4689.82 1846.63 4691.04 1887L4508.57 1891.82ZM4207.64 1912.2C4207.15 1906.2 4206.84 1900.21 4206.84 1894.08C4206.84 1859 4214.81 1825.76 4229.03 1795.86L4400.28 1870.35C4397.04 1877.31 4395.2 1884.98 4395.2 1893.07C4395.2 1893.42 4395.26 1893.78 4395.26 1894.14L4207.64 1912.2ZM4488.27 1935.27C4494.71 1930.05 4499.92 1923.45 4503.48 1915.95L4675.65 1976.89C4661.24 2013.93 4637.45 2046.51 4607.04 2071.9L4488.27 1935.27ZM4315.31 2089.79C4280.97 2067.73 4252.89 2037.41 4233.88 2001.8L4401.39 1918.04C4405.26 1925.35 4410.78 1931.71 4417.45 1936.7L4315.31 2089.79ZM4449.03 2128.84C4433.58 2128.84 4418.56 2127.36 4403.91 2124.69L4440.57 1946.99C4444.2 1947.7 4447.99 1948.06 4451.92 1948.06C4456.63 1948.06 4461.24 1947.46 4465.59 1946.4L4524.57 2117.14C4500.79 2124.69 4475.4 2128.84 4449.03 2128.84Z" stroke="#F2F3F5"/>
<path d="M2302.77 1067.17C2329.57 1069.3 2355.45 1068.65 2382.25 1067.17C2442.88 1068.65 2404.2 966.929 2336.26 983.156C2291.99 996.955 2296.65 1028.46 2302.77 1067.17Z" fill="#3B3B3B"/>
<path d="M2302.77 1067.17C2329.57 1069.3 2355.45 1068.65 2382.25 1067.17C2442.88 1068.65 2404.2 966.929 2336.26 983.156C2291.99 996.955 2296.65 1028.46 2302.77 1067.17Z" stroke="#F2F3F5"/>
<path d="M984.207 2061.07C1072.44 2168.86 1230.39 2194.78 1350.26 2121.06C1470.12 2047.34 1513.35 1897.82 1450.45 1774.45C1387.53 1651.1 1238.73 1593.61 1105.55 1641.23C972.373 1688.85 897.692 1826.24 932.519 1959.71C942.146 1996.63 959.743 2031.23 984.207 2061.07ZM1240.38 1854.61C1233.82 1849.72 1226.09 1846.16 1217.63 1844.49L1241.42 1661.86C1282.68 1668.16 1321.19 1684.57 1353.57 1709.12L1240.38 1854.61ZM1036.82 1723.56C1060.24 1702.05 1088.02 1685.04 1118.86 1673.87C1127.38 1670.84 1136.02 1668.34 1144.85 1666.26L1192.25 1845.09C1183.9 1847.11 1176.25 1850.86 1169.86 1856.02L1036.82 1723.56ZM1262.76 1897.11C1262.57 1888.6 1260.36 1880.64 1256.69 1873.51L1415.86 1779.4C1424.02 1793.54 1430.82 1808.65 1435.97 1824.64C1439.1 1834.38 1441.61 1844.31 1443.39 1854.36C1445.67 1867.08 1446.76 1879.75 1446.95 1892.23L1262.76 1897.11ZM961.888 1917.44C958.148 1879.87 963.667 1841.65 978.628 1805.97C979.424 1804.06 980.344 1802.16 981.201 1800.26L1154.48 1875.64C1151.23 1882.55 1149.39 1890.22 1149.39 1898.36C1149.39 1898.71 1149.39 1899.07 1149.45 1899.43L961.888 1917.44ZM1242.47 1940.56C1248.9 1935.34 1254.12 1928.74 1257.61 1921.24L1429.72 1982.12C1414.83 2018.27 1390.84 2050.49 1359.89 2075.64L1242.47 1940.56ZM1071.22 2092.41C1045.03 2075.88 1021.86 2054.29 1003.39 2028.26C998.37 2021.18 993.956 2013.75 989.787 2006.2L1155.58 1923.33C1159.45 1930.64 1164.97 1937 1171.64 1941.99L1071.22 2092.41ZM1269.01 2121.95C1232.28 2131.82 1194.64 2133.01 1158.83 2126.48L1194.7 1952.22C1198.38 1952.99 1202.18 1953.35 1206.11 1953.35C1210.83 1953.35 1215.37 1952.76 1219.78 1951.69L1277.72 2119.4C1274.83 2120.29 1271.96 2121.17 1269.01 2121.95Z" fill="#040606"/>
<path d="M984.207 2061.07C1072.44 2168.86 1230.39 2194.78 1350.26 2121.06C1470.12 2047.34 1513.35 1897.82 1450.45 1774.45C1387.53 1651.1 1238.73 1593.61 1105.55 1641.23C972.373 1688.85 897.692 1826.24 932.519 1959.71C942.146 1996.63 959.743 2031.23 984.207 2061.07ZM1240.38 1854.61C1233.82 1849.72 1226.09 1846.16 1217.63 1844.49L1241.42 1661.86C1282.68 1668.16 1321.19 1684.57 1353.57 1709.12L1240.38 1854.61ZM1036.82 1723.56C1060.24 1702.05 1088.02 1685.04 1118.86 1673.87C1127.38 1670.84 1136.02 1668.34 1144.85 1666.26L1192.25 1845.09C1183.9 1847.11 1176.25 1850.86 1169.86 1856.02L1036.82 1723.56ZM1262.76 1897.11C1262.57 1888.6 1260.36 1880.64 1256.69 1873.51L1415.86 1779.4C1424.02 1793.54 1430.82 1808.65 1435.97 1824.64C1439.1 1834.38 1441.61 1844.31 1443.39 1854.36C1445.67 1867.08 1446.76 1879.75 1446.95 1892.23L1262.76 1897.11ZM961.888 1917.44C958.148 1879.87 963.667 1841.65 978.628 1805.97C979.424 1804.06 980.344 1802.16 981.201 1800.26L1154.48 1875.64C1151.23 1882.55 1149.39 1890.22 1149.39 1898.36C1149.39 1898.71 1149.39 1899.07 1149.45 1899.43L961.888 1917.44ZM1242.47 1940.56C1248.9 1935.34 1254.12 1928.74 1257.61 1921.24L1429.72 1982.12C1414.83 2018.27 1390.84 2050.49 1359.89 2075.64L1242.47 1940.56ZM1071.22 2092.41C1045.03 2075.88 1021.86 2054.29 1003.39 2028.26C998.37 2021.18 993.956 2013.75 989.787 2006.2L1155.58 1923.33C1159.45 1930.64 1164.97 1937 1171.64 1941.99L1071.22 2092.41ZM1269.01 2121.95C1232.28 2131.82 1194.64 2133.01 1158.83 2126.48L1194.7 1952.22C1198.38 1952.99 1202.18 1953.35 1206.11 1953.35C1210.83 1953.35 1215.37 1952.76 1219.78 1951.69L1277.72 2119.4C1274.83 2120.29 1271.96 2121.17 1269.01 2121.95Z" stroke="#F2F3F5"/>
<path d="M2939.6 1238.44H2822.29L2802.12 1295.93H2919.41L2939.6 1238.44Z" fill="#3B3B3B"/>
<path d="M2939.6 1238.44H2822.29L2802.12 1295.93H2919.41L2939.6 1238.44Z" stroke="#F2F3F5"/>
<path d="M1540.62 1092.95C1534 1127.83 1528.88 1163.22 1525.31 1199.05C1315.02 1209.8 1089.5 1224.53 953.547 1244.57H953.302C951.402 1244.8 949.194 1245.16 946.681 1245.52C899.897 1252.24 751.885 1276.01 707.248 1282.44C703.262 1282.97 700.136 1283.39 697.928 1283.68C592.406 1297.48 474.925 1320.79 417.106 1363.53C457.328 1352.35 503.069 1343.19 551.017 1335.41C598.904 1327.68 648.998 1321.32 697.928 1315.67C723.866 1312.76 961.274 1272.87 1003.65 1266.98C1003.89 1266.93 1004.02 1266.93 1004.19 1266.93C1004.5 1266.87 1004.8 1266.87 1005.11 1266.8C1158.18 1244.18 1344.19 1232.98 1522.95 1225.79C1520.52 1257.15 1519.29 1288.83 1519.29 1320.8C1519.29 1368.59 1522.05 1415.74 1527.42 1462.12C1413.6 1369.88 1271.27 1318.18 1118.73 1334.46C952.873 1357.35 804.922 1440.16 714.115 1578.5C756.421 1556.75 786.834 1520.3 825.033 1493.2C944.841 1408.24 1103.47 1371.38 1251.16 1387.55C1382.18 1414.14 1454.9 1434.03 1530.72 1488.11C1536.34 1528.93 1543.99 1569.13 1553.57 1608.6C1550.24 1604.79 1546.78 1601.04 1543.15 1597.36C1477.92 1531.01 1418.44 1481.9 1325.79 1456.63C1151.91 1392.37 941.101 1454.13 828.773 1596.4C828.529 1596.7 828.282 1597 827.975 1597.36C816.694 1611.08 790.697 1653.18 781.561 1676.19C739.806 1777.91 729.505 1872.79 731.711 1980.58C720.613 1980.4 709.822 1980.16 699.214 1979.8C677.693 1979.08 657.153 1978.07 637.716 1976.83C633.301 1976.59 629.01 1976.3 624.779 1976C588.849 1973.44 556.904 1970.17 529.865 1966.9C510.367 1964.58 493.383 1962.27 479.341 1960.12H479.219C461.376 1957.51 448.132 1955.25 440.283 1953.94C439.732 1953.88 439.242 1953.77 438.75 1953.71C437.708 1953.58 436.727 1953.41 435.868 1953.29C435.5 1953.23 435.194 1953.17 434.887 1953.12H434.827C416.249 1950.55 397.547 1948.47 378.846 1946.46C394.174 1952.22 410.362 1957.15 426.855 1961.44C426.978 1961.49 427.163 1961.49 427.346 1961.55C439.242 1964.29 546.603 1980.93 637.594 1986.05C683.824 1988.6 710.559 1989.97 725.704 1990.69H725.763C731.65 1990.98 735.758 1991.16 738.64 1991.22C737.475 1864.28 745.876 1805.61 792.842 1685.7C798.728 1671.01 822.09 1630.7 837.787 1613.17C958.943 1473.22 1078.02 1448.25 1228.06 1456.87V1456.81C1228.43 1456.81 1228.79 1456.87 1229.21 1456.93C1258.59 1459.07 1360.5 1472.51 1502.87 1572.75C1514.27 1581.3 1533.53 1602.11 1553.7 1629.58C1556.43 1633.29 1559.18 1637.13 1561.93 1641.09C1581.77 1714 1608.24 1784.31 1640.66 1851.42C1647.73 1900.7 1651.59 1948.78 1652.97 1967.56C1650.93 1967.68 1648.91 1967.68 1646.89 1967.68C1632.48 1967.91 1618.2 1967.79 1603.73 1967.38C1557.98 2099.36 1501.65 2203.35 1354.37 2255.36C1428.19 2258.69 1502.56 2255 1576.5 2255.54L1950.39 2255.52C1960.67 2264.48 1971.1 2273.29 1981.67 2281.94L1216.52 2283.66C1036.62 2283.3 860.227 2271.71 677.51 2273.14C801.549 2254.59 930.677 2272.36 1054.9 2255.36C940.611 2210.95 857.959 2111.25 827.975 1996.63C802.162 1996.34 776.349 1996.39 750.536 1996.63V2049.84C693.758 2043.65 213.298 2005.36 271.729 1880.23L283.011 1876.36C260.692 1868.62 201.525 1705.08 272.036 1713.17C301.651 1714.23 331.144 1716.31 360.636 1718.34C360.783 1718.34 625.341 1732.54 665.983 1733.26C692.286 1732.96 718.469 1732.31 744.282 1731.36L742.38 1728.85C679.165 1720.89 608.591 1714.06 539.062 1711.38C538.387 1711.32 537.651 1711.32 536.854 1711.26C489.641 1708.83 321.089 1699.9 291.044 1695.92H290.799C284.545 1694.91 278.29 1693.85 272.036 1692.59C223.475 1690.92 240.95 1617.15 252.907 1588.68C380.502 1509.36 321.088 1439.68 369.464 1313.35C401.655 1229.23 691.244 1195.1 773.406 1181.97C819.362 1174.63 1237.39 1124.26 1540.62 1092.95ZM3203.74 2255.43C3179.16 2264.28 3154.13 2272.27 3128.7 2279.36L2546.94 2280.67C2519.92 2273.27 2493.36 2264.86 2467.3 2255.48L3203.74 2255.43ZM4361.96 1456.16C4387.48 1453.18 4416.29 1452.24 4449.03 1454.01V1454.07C4482.02 1454.55 4514.7 1457.59 4545.73 1466.56C4612.06 1482.14 4675.65 1518.87 4730.04 1563.52C4730.52 1563.94 4731.08 1564.36 4731.57 1564.77C4818.08 1637.19 4858.44 1732.31 4865.24 1754.96C4865.24 1754.97 4865.31 1755.2 4865.42 1755.67C4886.08 1830.76 4879.65 1878.91 4888.6 1967.38C4872.59 1966.61 4857.14 1966.43 4841.2 1967.38C4797.11 2109.29 4731.02 2194.54 4588.52 2261.72C4762.1 2253.88 5082.48 2256.31 5259.43 2271.65C5219.02 2279.8 5168.26 2274.87 5126.75 2274.87L3693.91 2278.09C3702.93 2270.64 3711.85 2263.07 3720.65 2255.4L4274.04 2255.36C4151.1 2187.35 4104.69 2102.81 4061.1 1977.08L4071.51 2049.84C4021.96 2047.05 3968.19 2046.47 3912.48 2046.97C3937.44 2012.97 3960.69 1977.72 3982.12 1941.35C3979.07 1961.47 3977.29 1974.91 3977.28 1974.99C3984.75 1964.55 3991.49 1941.61 3998.54 1912.61C4052.42 1815.33 4093.43 1710.44 4119.38 1600C4134.3 1581.54 4151.77 1562.57 4172.26 1543.43C4172.5 1543.14 4172.81 1542.89 4173.06 1542.66C4180.72 1535.05 4188.32 1528.56 4196.54 1522.74C4196.6 1522.68 4196.6 1522.62 4196.6 1522.62C4197.71 1521.79 4198.86 1520.89 4199.97 1520.07C4231.07 1496.64 4274.16 1469.71 4344.8 1458.54L4344.86 1458.47C4350.32 1457.59 4355.96 1456.81 4361.72 1456.16H4361.96ZM4744.82 1870.83C4731.2 1712.69 4588.09 1595.09 4424.99 1607.94C4261.28 1620.84 4139.58 1760.13 4153.25 1918.81C4166.92 2077.42 4310.83 2195.2 4474.41 2181.58C4637.51 2167.97 4758.43 2028.96 4744.82 1870.83ZM1497.41 1868.22C1483.79 1710.07 1340.69 1592.47 1177.6 1605.32C1013.89 1618.22 892.172 1757.51 905.845 1916.2C919.519 2074.81 1063.42 2192.58 1227.01 2178.97C1390.1 2165.36 1511.02 2026.35 1497.41 1868.22ZM1664.31 1897.85C1694.02 1953.25 1727.87 2006.25 1765.47 2056.48L1663.88 2056.61C1660.62 2027.72 1661.6 1997.52 1662.71 1967.38L1662.95 1960.18C1663.64 1942.94 1664.19 1925.77 1663.88 1908.93C1664.11 1905.23 1664.25 1901.54 1664.31 1897.85ZM3628.13 1971.04C3601.82 2000.33 3573.75 2028.15 3544.09 2054.35C3537.67 2054.35 3531.29 2054.33 3524.96 2054.29L2128.71 2056.03C2100.39 2031.14 2073.53 2004.78 2048.23 1977.08H2582.01C2629.46 1981.06 2681.15 1977.19 2729.03 1977.13H3033.59C3231.18 1977.18 3430.88 1982.67 3628.13 1971.04ZM3905.13 584.716C4055.53 595.668 4205.86 616.723 4288.39 656.831C4402.19 712.123 4685.21 960.268 4750.52 981.133C4844.64 1011.28 5111.78 1031.62 5226.13 1051.35C5357.83 1074 5418.05 1056.99 5448.46 1202.72C5423.81 1198.32 5403.14 1199.8 5378.38 1202.72C5349.55 1241.18 5293.27 1390.46 5289.53 1438.8C5299.89 1446.53 5430.13 1434.45 5452.32 1432.14C5467.28 1418.88 5464.52 1419.05 5471.33 1435.4C5471.02 1461.09 5470.97 1486.71 5471.33 1512.34C5508.37 1516.8 5536.51 1528.27 5566.18 1549.74C5611.93 1629.45 5549.94 1793.12 5498.74 1862.57C5462.8 1911.38 4995.53 1970.71 4897.19 1984.79C4896.46 1984.92 4896.09 1984.98 4896.08 1984.98C4896.09 1984.88 4897.67 1963.5 4897.91 1931.71V1931.52C4898.34 1878.14 4895.04 1795.63 4874.31 1736.06C4874 1735.28 4873.76 1734.5 4873.46 1733.74C4872.65 1731.59 4871.85 1729.46 4871 1727.31C4870.76 1726.54 4870.44 1725.83 4870.14 1725.06C4865.3 1712.75 4859.84 1699.73 4853.83 1685.7C4816.06 1600.69 4730.04 1500.39 4639.36 1466.56C4556.82 1433.57 4466.76 1411.51 4377.29 1428.03C4288.98 1438.89 4192.62 1489.74 4128.05 1560.12C4135.21 1524.26 4140.79 1487.85 4144.72 1450.97C4272.81 1356.28 4481.25 1337.65 4626.73 1383.39L4626.78 1383.33C4627.51 1383.56 4628.25 1383.8 4629.05 1384.09C4642.85 1388.5 4656.09 1393.43 4668.6 1399.03C4668.91 1399.2 4669.28 1399.39 4669.58 1399.56C4709.07 1415.79 4765.1 1442.19 4808.58 1476.19C4827.89 1490.1 4847.64 1507.28 4869.35 1530.77C4913.73 1578.8 4944.63 1628.68 5022.08 1602.52C5022 1602.53 4996.16 1604.06 4970.45 1597.89C4953.59 1593.84 4936.72 1586.53 4927.16 1573.34C4926.98 1573.09 4926.79 1572.79 4926.61 1572.56C4923.24 1567.8 4919.44 1562.21 4915.03 1555.62C4879.58 1502.47 4839.55 1462.69 4793.07 1427.44C4767.44 1408 4739.78 1389.99 4709.86 1371.85C4703.49 1368.41 4697.17 1365.13 4690.86 1362.11C4570.62 1303.49 4462.52 1308.36 4425.79 1309.67C4422.42 1309.79 4419.6 1309.85 4417.45 1309.85C4382.26 1310.86 4342.16 1315.31 4292.98 1324.18C4322.23 1263.47 4330.95 1208.66 4339.89 1142.9C4573.01 1142.84 4793.87 1146.65 5026 1152.95C4973.45 1141.6 4875.41 1138.27 4818.82 1134.58C4658.05 1124.23 4493.18 1114.2 4331.98 1115.02C4344.27 916.884 4166.95 776.911 3984.22 703.829C3960.13 662.635 3933.71 622.876 3905.13 584.716ZM3731.53 1834.13C3702.44 1880.43 3669.53 1924.3 3633.2 1965.35C3578.14 1964.22 3523.3 1962.79 3468.37 1961.49C3445.44 1960.96 3422.51 1960.43 3399.57 1959.95C3382.28 1959.59 3365.05 1959.23 3347.76 1958.94C3295.21 1957.99 3242.42 1957.4 3189.08 1957.4C3185.76 1932.6 3181.85 1908.17 3176.81 1883.67C3229.61 1883.73 3568.49 1890.75 3593.14 1877.91C3455.8 1866.91 3314.22 1880.57 3176.09 1876.65L3172.7 1866.66L3167.68 1866.85L3156.83 1867.32C3157.99 1870.06 3159.4 1873.74 3160.14 1877.01C3160.14 1877.01 3125.93 1876.9 3109.24 1878.56C3085.71 1880.75 3063.64 1883.71 3063.51 1883.73H3077.25C3104.77 1883.79 3133.65 1885.75 3160.99 1883.67C3166.76 1907.87 3169.77 1932.72 3172.09 1957.4H2610.57L2154.52 1957.33C2133.37 1957.33 2086.34 1959.76 2048.5 1959.95H2047.16C2044.22 1959.95 2039.4 1960.01 2033.12 1960.15C2012.47 1936.48 1992.94 1911.89 1974.61 1886.46L1974.13 1885.27L1973.89 1884.68L1960.4 1851.45L1959.6 1849.55H1996.26C2048.5 1849.55 2142.19 1849.61 2247.9 1849.61H2249.18C2250.79 1849.55 2252.2 1849.55 2253.55 1849.55L2454.77 1849.61H2487.33C2543.87 1849.61 2597.7 1849.61 2644.6 1849.66H2801.01C2836.95 1849.66 2933.88 1848.83 3044.26 1847.64H3044.37C3069.02 1847.05 3094.41 1846.63 3114.7 1846.87C3133.84 1846.63 3153.09 1846.45 3172.16 1846.22C3210.91 1845.74 3249.17 1845.27 3284.97 1844.79C3285.84 1844.79 3286.62 1844.73 3287.43 1844.73C3289.51 1844.73 3291.53 1844.67 3293.56 1844.67C3296.38 1844.62 3299.14 1844.62 3301.9 1844.55C3310.05 1844.49 3318.2 1844.37 3326.37 1844.26C3346.23 1844.07 3366.1 1843.78 3385.96 1843.36C3392.28 1843.25 3398.35 1843.13 3404.23 1843.06C3406.87 1843 3409.5 1843 3412.02 1842.95C3414.95 1842.95 3417.84 1842.89 3420.79 1842.77C3429.31 1842.64 3437.22 1842.47 3444.51 1842.35C3448.01 1842.3 3451.33 1842.24 3454.44 1842.11C3461.13 1841.99 3467.08 1841.88 3472.17 1841.76C3474.07 1841.69 3476.04 1841.64 3478.11 1841.64C3481.43 1841.58 3484.8 1841.46 3488.11 1841.4C3493.2 1841.29 3498.71 1841.1 3504.48 1840.98C3508.29 1840.87 3512.14 1840.81 3515.94 1840.68C3517.85 1840.63 3519.81 1840.57 3521.77 1840.51C3578.01 1838.89 3656.76 1836.47 3731.53 1834.13ZM252.907 1745.92C256.278 1778.98 257.26 1832.66 285.464 1855.55C300.608 1867.8 387.797 1900.61 378.846 1858.82L375.841 1843.42C356.712 1742.53 406.989 1795.21 420.846 1770.89L417.474 1768.93C415.512 1768.09 412.507 1767.33 408.215 1766.91C392.887 1765.83 372.224 1765.54 360.636 1772.55C361.678 1793.48 369.525 1824.22 350.703 1839.38C342.671 1812.45 340.402 1784.21 339.052 1756.33C309.928 1754.24 281.724 1750.62 252.907 1745.92ZM1949.06 1849.25C1950.3 1849.35 1951.48 1849.44 1952.6 1849.55C1954.06 1853.49 1955.56 1857.41 1957.07 1861.31C1954.37 1857.31 1951.7 1853.29 1949.06 1849.25ZM411.404 1789.92C410.239 1789.92 409.135 1789.98 408.031 1790.15C407.909 1790.15 407.786 1790.15 407.726 1790.21C405.028 1790.63 402.514 1791.46 400.183 1792.65C400.061 1792.72 399.938 1792.77 399.816 1792.83C392.703 1796.75 387.921 1804.18 387.92 1812.68C387.921 1825.23 398.406 1835.39 411.404 1835.39C420.724 1835.39 428.818 1830.1 432.558 1822.43C434.029 1819.46 434.827 1816.13 434.827 1812.68C434.827 1808.17 433.478 1804.01 431.148 1800.5C427.04 1794.13 419.743 1789.92 411.404 1789.92ZM3434.58 573.006C3464.3 572.86 3495.62 570.394 3525.78 571.45C3558.48 599.009 3589.37 628.489 3618.23 659.702C3587.73 657.59 3557.38 656.024 3527.66 654.87H3526.49C3513.99 654.685 3501.42 654.636 3488.78 654.747C3458.13 654.982 3427.77 653.921 3397.91 652.071C3359.77 651.776 3324.34 651.899 3293.01 652.071C3286.82 687.51 3280.07 722.875 3273.19 758.252L3218.99 1048.79L3211.52 1088.98L3207.04 1113.12C3227.46 1112.47 3247.82 1111.82 3267.87 1111.21C3268.17 1111.21 3268.48 1111.21 3268.73 1111.16C3330.84 1108.13 3392.95 1107.29 3455.18 1105.39L3490.19 1104.57C3495.16 1104.44 3499.75 1104.32 3503.93 1104.21C3504.9 1104.21 3505.83 1104.21 3506.75 1104.15C3511.35 1104.02 3515.4 1103.9 3518.83 1103.85C3519.5 1103.85 3520.18 1103.79 3520.79 1103.79C3521.4 1103.79 3522.07 1103.73 3522.81 1103.73C3523.68 1103.73 3524.59 1103.67 3525.57 1103.67C3570.97 1102.66 3712.89 1101.02 3854.14 1098.83C3856.25 1107.67 3858.23 1116.57 3860.08 1125.5L3815.04 1126.5C3814.48 1126.55 3813.87 1126.55 3813.33 1126.55L3785.55 1127.21C3783.21 1127.21 3780.88 1127.27 3778.56 1127.33L3733.44 1128.4C3730.31 1128.46 3727.29 1128.51 3724.42 1128.57L3705.34 1128.99C3651.45 1130.24 3443.05 1136.24 3202.08 1143.45L3198.89 1162.71L3222.86 1162.05L3222.8 1161.87C3228.51 1161.76 3234.81 1161.63 3241.63 1161.51H3242.05C3358.43 1159.41 3625.5 1154.57 3864.91 1150.36C3868.69 1171.36 3871.79 1192.59 3874.18 1214.01H3808.11L3770.89 1320.37H3880.1C3880.1 1320.51 3880.1 1320.66 3880.1 1320.8C3880.1 1497.71 3831.81 1664.24 3746.98 1808.71C3619.72 1810.56 3467.99 1812.64 3401.78 1812.74H3383.44C3352.79 1812.74 3267.32 1813.33 3152.36 1814.23C3149.77 1814.23 3147.2 1814.3 3144.56 1814.3C2748.9 1817.38 2018.4 1823.99 1952.6 1823.38C1947.56 1823.38 1940.78 1823.34 1932.66 1823.29C1842.42 1675.49 1790.8 1503.7 1790.8 1320.8C1790.8 1285.63 1792.71 1250.86 1796.43 1216.6C1865.95 1214.42 1930.03 1212.25 1985.35 1209.49C1971.98 1235.41 1959.47 1261.69 1947.03 1288.09C1918.28 1358.36 1906.57 1466.14 1924.59 1539.5C1924.59 1520.13 1925.26 1502.35 1926.43 1485.47C1929.19 1426.36 1936.06 1335.29 1952.6 1300.39C1965.24 1269.71 1981.92 1237.55 1999.95 1209.49C2124.59 1209.49 3115.13 1172.28 3179.39 1163.24C3180.74 1156.16 3181.96 1149.75 3183.13 1143.98C2799.79 1155.33 2343 1169.36 2293.34 1171.5V1171.45C2201.3 1175.07 2109.7 1177.63 2019.14 1177.69C2055.8 1141.18 2094.68 1107.12 2133.48 1072.99C2135.57 1071.15 2137.65 1069.3 2139.8 1067.4C2145.38 1062.41 2151.27 1057.24 2157.47 1051.76C2158.44 1050.94 2159.42 1050.04 2160.4 1049.21C2195.91 1018 2240.85 979.42 2292.84 938.037C2339.56 900.823 2391.99 861.29 2448.21 822.756C2448.7 822.399 2449.2 822.102 2449.68 821.744C2484.57 797.379 2519.34 774.727 2551.89 756.588C2613.57 720.089 2659.99 697.61 2679.8 688.522C2677.22 684.539 2674.03 681.74 2670.11 677.991C2634.73 692.739 2503.34 767.945 2446.86 804.21C2446.8 804.271 2446.75 804.272 2446.68 804.333C2446.62 804.333 2446.62 804.383 2446.56 804.383C2446.12 804.691 2445.7 804.925 2445.33 805.159C2444.53 805.702 2443.62 806.356 2442.69 806.886C2441.97 807.416 2441.23 807.897 2440.36 808.488C2439.69 808.969 2439.01 809.377 2438.34 809.796C2376.6 851.659 2207.87 985.596 2186.52 1004.44C2186.22 1004.69 2185.85 1005.04 2185.61 1005.28C2151.95 1035.83 2118.59 1065.86 2083.58 1089.58C2054.02 1090.47 1969.96 1093.68 1952.6 1067.17C1992.89 1031.85 2042.68 1004.08 2087.19 973.821C2222.58 881.673 2444.16 724.601 2595.31 661.344C2607.07 656.596 2625.17 647.016 2656.56 635.905C2672.01 630.431 2690.65 624.61 2713.4 618.778C2715.12 618.309 2716.9 617.89 2718.73 617.409C2730.94 614.203 2743.14 611.404 2755.46 609.086C2755.59 609.037 2755.77 608.975 2755.96 608.975C2780.67 603.857 2808.99 598.925 2841.61 594.461C2854.06 592.796 2867.12 591.132 2880.79 589.591C2895.26 587.988 2910.46 586.434 2926.41 585.016C2926.47 585.016 2926.47 584.954 2926.53 585.016C2939.4 583.82 2952.83 582.759 2966.69 581.748C2997.65 579.541 3031.13 577.704 3067.43 576.397C3087.48 575.743 3108.33 575.139 3130.15 574.781C3151.92 574.436 3174.55 574.19 3198.09 574.19H3198.46C3211.71 573.894 3224.95 573.659 3238.31 573.474L3434.58 573.006ZM3628.45 1673.98C3558.25 1671.6 3390.68 1675.83 3363.34 1676.19H3360.7L3052.28 1676.13C2910.59 1676.19 2779.37 1678.32 2638.47 1683.26C2573.73 1685.46 2440.62 1682.73 2383.1 1695.68C2383.11 1695.69 2386.11 1695.87 2390.64 1696.1C2393.59 1696.28 2397.26 1696.46 2401.24 1696.57C2403.52 1696.63 2405.91 1696.7 2408.3 1696.76C2408.79 1696.76 2409.15 1696.82 2409.52 1696.82C2435.15 1697.35 2460.35 1697.58 2485.19 1697.58C2559.56 1697.58 2631.17 1695.51 2704.39 1694.02H2704.63C2744 1693.19 2783.84 1692.54 2824.87 1692.48C2997.34 1692.12 3170.07 1692.84 3342.67 1689.09C3539.13 1686.47 3646.25 1677.14 3655.81 1676.25C3656.29 1676.19 3656.55 1676.19 3656.55 1676.19C3656.55 1676.19 3652.74 1675.71 3647.34 1675.24C3641.95 1674.7 3634.9 1674.17 3628.45 1673.98ZM5506.52 1635.58C5459.8 1636.18 5414.37 1637.42 5370.65 1639.21C5223.8 1645.09 5097.06 1656.51 5010.92 1665.84H5010.61C4938.7 1673.69 4895.1 1679.99 4891.78 1680.47C4891.83 1680.48 4930.02 1690.81 4988.85 1685.93C4989.27 1685.88 4989.77 1685.88 4990.25 1685.82C5001.11 1684.87 5020.79 1683.21 5045.99 1681.06C5046.79 1681 5047.64 1680.94 5048.51 1680.89C5098.72 1676.66 5169.78 1670.71 5236 1665.13C5260.9 1663.04 5285.12 1661.02 5307.32 1659.12C5338.53 1654.84 5376.11 1652.95 5411.06 1650.44C5411.68 1650.38 5412.29 1650.32 5412.84 1650.27C5413.27 1650.21 5413.75 1650.21 5414.18 1650.21C5452.45 1647.41 5487.21 1643.78 5506.52 1635.58ZM3186.2 1163.06C3185.71 1164.19 3185.28 1165.26 3184.91 1166.33C3182.52 1172.8 3180.56 1179.17 3178.9 1185.53L3149.04 1390.58C3146.77 1423.69 3145.3 1456.81 3144.44 1489.26C3144.38 1513.41 3140.21 1633.2 3147.62 1645.51C3147.63 1645.37 3149.97 1605.46 3153.45 1550.56C3154.75 1530.12 3156.16 1507.64 3157.68 1484.33C3164 1388.62 3171.79 1279.59 3176.81 1246.11V1244.98C3177 1244.09 3177.18 1243.14 3177.43 1242.25C3182.52 1218.47 3186.74 1195.58 3188.35 1171.56C3188.59 1168.71 3188.78 1165.85 3188.83 1163L3186.2 1163.06ZM667.332 1353.84C646.73 1353.43 624.472 1351.47 604.053 1353.84C433.11 1369.47 420.172 1336.95 360.636 1512.34C378.846 1512.1 399.142 1510.2 417.106 1512.34C573.642 1514.48 596.33 1495.04 667.332 1353.84ZM4319.48 1142.9C4336.38 1318.59 4230.95 1373.69 4145.99 1438.39C4149.71 1399.68 4151.61 1360.46 4151.61 1320.8C4151.61 1261.33 4147.34 1202.85 4139.07 1145.62C4236.86 1143.98 4305.83 1142.9 4319.48 1142.9ZM2743.75 1320.37H2960.68L2997.97 1214.01H2781.03L2743.75 1320.37ZM1824.57 1068.24C1841.72 1067.59 1852.71 1067.81 1856.22 1069.07C1849.17 1094.52 1873.02 1091.59 1893.75 1095.4C1952.3 1102.59 2011.9 1106.88 2070.89 1108.07C2047.4 1131.02 2024.59 1156.16 1999.95 1177.69C1958.98 1179.85 1887.85 1182.7 1800.2 1186.41C1805.87 1146.23 1814.04 1106.79 1824.57 1068.24ZM3278.9 652.071C3269.15 646.547 3085.95 652.491 3056.76 652.071C2809.42 662.183 2667.42 696.192 2464.77 845.95C2461.83 848.145 2458.03 850.759 2453.68 853.731C2402.05 890.493 2345.16 946.223 2345.02 946.361L2349.99 949.986C2350.18 949.857 2471.96 867.159 2496.41 849.748V849.686C2506.28 842.435 2514.75 836.368 2520.81 832.275C2753.44 676.449 2940.38 665.635 3223.66 672.294C3213.49 716.821 3202.45 761.163 3191.22 805.455L3131.63 1049.99L3122 1089.58C3087.53 1091 2307.31 1124.71 2263.11 1128.28C2262.43 1128.28 2261.88 1128.34 2261.57 1128.4C2248.76 1129.71 2239.38 1129.83 2237.47 1127.39C2216.63 1100.52 2212.09 1060.15 2219.02 1027.87C2199.28 1044.93 2123.43 1103.25 2118.52 1123.88C2151.08 1171.98 2343.49 1145.22 2395.92 1143.56L2890.48 1123.52H2890.66C2892.74 1123.41 2895.2 1123.35 2898.02 1123.22L2902.37 1123.05C2904.46 1122.93 2906.67 1122.86 2909.06 1122.82C2955.59 1121.03 3057.19 1117.76 3165.1 1114.37C3173.14 1114.13 3181.24 1113.89 3189.32 1113.65L3194.11 1088.98L3201.89 1049.03L3278.9 652.071ZM3987.92 710.207C4000.09 715.107 4012.12 720.413 4023.94 726.328C4162.94 796.01 4321.32 950.825 4319.48 1115.02C4319.45 1115.02 4318.11 1115.08 4315.74 1115.08L4313.04 1115.15C4311.02 1115.19 4308.44 1115.26 4305.44 1115.32L4294.33 1115.61H4292.87L4260.19 1116.39C4248.47 1116.63 4235.22 1116.92 4220.88 1117.28L4196.84 1117.82C4195.74 1117.82 4194.58 1117.87 4193.47 1117.87L4163.92 1118.59C4162.7 1118.59 4161.46 1118.65 4160.24 1118.65L4134.97 1119.23C4133.5 1110.45 4131.94 1101.7 4130.29 1092.99C4157.57 1092.04 4177.3 1091.04 4186.3 1089.99C4187.28 1089.88 4188.19 1089.7 4189.06 1089.58C4189.73 1089.46 4190.34 1089.34 4190.95 1089.28C4191.51 1089.16 4192.06 1089.1 4192.56 1088.98C4192.61 1088.98 4192.67 1088.92 4192.73 1088.98C4192.86 1088.98 4192.98 1088.92 4193.1 1088.92C4193.29 1088.81 4193.47 1088.81 4193.66 1088.81C4193.78 1088.81 4193.9 1088.81 4193.97 1088.75C4194.27 1088.68 4194.58 1088.62 4194.95 1088.57C4195.13 1088.51 4195.37 1088.51 4195.56 1088.51C4195.69 1088.45 4195.74 1088.39 4195.86 1088.45C4195.93 1088.39 4196.05 1088.39 4196.1 1088.39C4232.22 1082.21 4300.72 1074.48 4292.13 1028.16C4278.88 956.767 4111.86 801.065 4048.04 760.805C4034.17 752.053 4019 743.998 4002.71 736.585C3997.89 727.73 3992.96 718.937 3987.92 710.207ZM2424.73 1054.44C2422.28 985.117 2409.09 956.768 2323.13 959.974C2321.23 960.146 2318.72 960.27 2315.29 960.331C2282.67 960.627 2248.09 997.076 2239.68 1009.62C2229.32 1027.39 2222.69 1047.78 2219.02 1067.17C2259.92 1095.53 2287.32 1096.65 2336.26 1095.4C2355.69 1092.25 2376.29 1089.7 2395.98 1085.06C2406.83 1082.03 2425.65 1071.93 2424.73 1054.44Z" fill="#3B3B3B"/>
<path d="M4031.01 791.77C4127.03 859.142 4264.23 989.591 4227.2 1052.72C4205.99 1059.56 4172.13 1061.94 4136.33 1062.41C4136.14 1062.47 4135.97 1062.47 4135.77 1062.47C4132.5 1062.58 4128.58 1062.71 4124.18 1062.86C4103.71 968.131 4072.2 877.345 4031.01 791.77Z" fill="#3B3B3B"/>
<path d="M3346.97 672.295C3438.26 680.393 3541.08 681.442 3642.67 688.215C3737.55 798.872 3808.02 929.284 3846.34 1071.81L3281.43 1089.46L3280.01 1089.52L3278.91 1089.58C3280.19 1075.72 3281.67 1061.81 3283.32 1047.97C3297.92 922.34 3324.96 796.602 3346.97 672.295Z" fill="#3B3B3B"/>
<path d="M3872.78 1238.44C3874.4 1257.46 3875.47 1276.63 3875.97 1295.93H3829.26L3849.38 1238.44H3872.78Z" fill="#3B3B3B"/>
<g filter="url(#filter0_d_7_113)">
<path d="M5398.47 1952.11L5329.67 2163.22L4155.24 1818.95L4224.04 1607.84L5398.47 1952.11Z" fill="black"/>
<path d="M5398.47 1952.11L5329.67 2163.22L4155.24 1818.95L4224.04 1607.84L5398.47 1952.11Z" stroke="black" stroke-linecap="square"/>
</g>
<g filter="url(#filter1_d_7_113)">
<path d="M3850.53 899.728C3606.83 368.992 2960.11 132.702 2406.07 371.878C1852.04 611.054 1600.4 1235.17 1844.1 1765.9C2087.81 2296.64 2734.53 2532.93 3288.56 2293.75C3842.6 2054.58 4094.24 1430.46 3850.53 899.728ZM4000.82 834.85C4280.99 1445.01 3991.72 2162.62 3354.64 2437.65C2717.55 2712.68 1973.99 2440.94 1693.82 1830.78C1413.64 1220.62 1702.91 503.012 2340 227.982C2977.08 -47.0475 3720.64 224.692 4000.82 834.85Z" fill="black"/>
<path d="M3850.53 899.728C3606.83 368.992 2960.11 132.702 2406.07 371.878C1852.04 611.054 1600.4 1235.17 1844.1 1765.9C2087.81 2296.64 2734.53 2532.93 3288.56 2293.75C3842.6 2054.58 4094.24 1430.46 3850.53 899.728ZM4000.82 834.85C4280.99 1445.01 3991.72 2162.62 3354.64 2437.65C2717.55 2712.68 1973.99 2440.94 1693.82 1830.78C1413.64 1220.62 1702.91 503.012 2340 227.982C2977.08 -47.0475 3720.64 224.692 4000.82 834.85Z" stroke="black"/>
</g>
<g filter="url(#filter2_d_7_113)">
<path d="M5704.39 2031.49C5764.9 2049.04 5798.7 2110.58 5779.87 2168.92C5761.04 2227.27 5696.72 2260.34 5636.21 2242.78L5402.35 2174.93L5470.53 1963.64L5704.39 2031.49Z" fill="black"/>
<path d="M5704.39 2031.49C5764.9 2049.04 5798.7 2110.58 5779.87 2168.92C5761.04 2227.27 5696.72 2260.34 5636.21 2242.78L5402.35 2174.93L5470.53 1963.64L5704.39 2031.49Z" stroke="black"/>
</g>
<g filter="url(#filter3_d_7_113)">
<path d="M2045.68 920.6C2226.53 598.344 2634.02 416.565 2981.8 479.114C3010.68 484.308 3029.49 511.069 3023.82 538.886C3018.15 566.703 2990.14 585.043 2961.26 579.849C2659.55 525.586 2298.17 685.657 2139.38 968.606C2125.35 993.606 2093 1003.13 2067.13 989.87C2041.25 976.614 2031.65 945.6 2045.68 920.6Z" fill="black"/>
<path d="M2045.68 920.6C2226.53 598.344 2634.02 416.565 2981.8 479.114C3010.68 484.308 3029.49 511.069 3023.82 538.886C3018.15 566.703 2990.14 585.043 2961.26 579.849C2659.55 525.586 2298.17 685.657 2139.38 968.606C2125.35 993.606 2093 1003.13 2067.13 989.87C2041.25 976.614 2031.65 945.6 2045.68 920.6Z" stroke="black" stroke-linecap="round"/>
</g>
<g filter="url(#filter4_d_7_113)">
<path d="M3119.3 569.184C3126.37 541.652 3155.26 524.633 3183.83 531.171C3218.72 539.157 3252.18 546.556 3286.26 561.855C3321.2 577.545 3354.42 600.312 3394.23 636.472C3415.52 655.815 3416.31 688.24 3396 708.895C3375.68 729.55 3341.95 730.613 3320.65 711.27C3286.19 679.968 3262.15 664.534 3240.42 654.777C3217.82 644.629 3195.21 639.336 3158.23 630.874C3129.66 624.336 3112.23 596.716 3119.3 569.184Z" fill="black"/>
<path d="M3119.3 569.184C3126.37 541.652 3155.26 524.633 3183.83 531.171C3218.72 539.157 3252.18 546.556 3286.26 561.855C3321.2 577.545 3354.42 600.312 3394.23 636.472C3415.52 655.815 3416.31 688.24 3396 708.895C3375.68 729.55 3341.95 730.613 3320.65 711.27C3286.19 679.968 3262.15 664.534 3240.42 654.777C3217.82 644.629 3195.21 639.336 3158.23 630.874C3129.66 624.336 3112.23 596.716 3119.3 569.184Z" stroke="black" stroke-linecap="round"/>
</g>
<g filter="url(#filter5_d_7_113)">
<path d="M4150.8 1591.17L4082.62 1802.46L3848.76 1734.61L3916.94 1523.32L4150.8 1591.17Z" fill="black"/>
<path d="M4150.8 1591.17L4082.62 1802.46L3848.76 1734.61L3916.94 1523.32L4150.8 1591.17Z" stroke="black"/>
</g>
<path d="M1348.49 2697.61H1515.69V2717.96L1461.24 2730.61V3085.91H1602.04L1623.49 3006.16H1652.09V3110.11H1348.49V3089.76L1403.49 3077.11V2731.16L1348.49 2717.96V2697.61ZM1982.16 2697.61H2119.11V2717.41L2067.41 2731.16V2951.71C2067.41 3062.81 2014.25 3118.36 1907.91 3118.36C1853.65 3118.36 1813.86 3103.88 1788.56 3074.91C1763.26 3045.58 1750.61 3002.13 1750.61 2944.56V2731.16L1695.61 2717.96V2697.61H1862.81V2717.96L1808.36 2730.61V2955.01C1808.36 3002.68 1817.71 3037.69 1836.41 3060.06C1855.11 3082.06 1882.98 3093.06 1920.01 3093.06C1998.11 3093.06 2037.16 3045.03 2037.16 2948.96V2731.16L1982.16 2717.41V2697.61ZM2524.82 2977.56V3070.51C2492.19 3104.61 2446.72 3121.66 2388.42 3121.66C2330.12 3121.66 2281.54 3102.23 2242.67 3063.36C2204.17 3024.13 2184.92 2971.88 2184.92 2906.61C2184.92 2840.98 2204.54 2788.91 2243.77 2750.41C2283 2711.54 2331.59 2692.11 2389.52 2692.11C2447.82 2692.11 2492.92 2707.33 2524.82 2737.76V2826.86H2496.22L2469.27 2739.41C2449.1 2721.44 2422.52 2712.46 2389.52 2712.46C2347.72 2712.46 2313.8 2729.14 2287.77 2762.51C2261.74 2795.51 2248.72 2842.63 2248.72 2903.86C2248.72 2964.73 2261.19 3012.58 2286.12 3047.41C2311.42 3082.24 2345.15 3099.66 2387.32 3099.66C2421.42 3099.66 2449.47 3089.39 2471.47 3068.86L2498.97 2977.56H2524.82ZM2588.7 3110.11V3089.76L2637.65 3077.66L2804.3 2693.21H2832.35L2990.75 3077.66L3036.95 3089.76V3110.11H2880.75V3089.76L2928.6 3078.21L2885.15 2971.51H2719.05L2677.8 3078.21L2727.3 3089.76V3110.11H2588.7ZM2726.75 2950.61H2877.45L2800.45 2757.56L2726.75 2950.61ZM3233.32 3115.06C3190.79 3115.06 3148.25 3101.86 3105.72 3075.46V2984.71H3137.62L3161.27 3073.81C3182.17 3087.01 3205.64 3093.61 3231.67 3093.61C3251.1 3093.61 3270.9 3089.21 3291.07 3080.41C3301.7 3075.64 3310.5 3068.68 3317.47 3059.51C3324.44 3050.34 3328.29 3039.53 3329.02 3027.06C3327.92 2997.73 3312.7 2973.34 3283.37 2953.91C3272.37 2946.94 3257.52 2939.24 3238.82 2930.81C3220.12 2922.01 3208.02 2916.33 3202.52 2913.76C3136.15 2886.63 3102.97 2849.59 3102.97 2802.66C3102.97 2773.33 3114.34 2747.66 3137.07 2725.66C3159.8 2703.66 3192.25 2692.66 3234.42 2692.66C3256.05 2692.66 3278.42 2696.14 3301.52 2703.11C3324.62 2709.71 3343.87 2720.34 3359.27 2735.01V2815.31H3331.22L3305.92 2731.71C3285.39 2720.71 3263.39 2715.21 3239.92 2715.21C3216.45 2715.21 3196.84 2720.89 3181.07 2732.26C3165.3 2743.26 3157.42 2758.66 3157.42 2778.46C3157.42 2801.56 3167.14 2820.08 3186.57 2834.01C3203.07 2846.11 3220.49 2856.38 3238.82 2864.81C3257.15 2872.88 3268.52 2878.01 3272.92 2880.21C3347.35 2911.74 3384.57 2952.44 3384.57 3002.31C3384.57 3027.24 3376.14 3048.51 3359.27 3066.11C3328.47 3098.74 3286.49 3115.06 3233.32 3115.06ZM3822.24 2931.91H3992.19V2952.26L3937.74 2964.91V3090.31C3919.04 3098.74 3895.02 3105.34 3865.69 3110.11C3836.36 3114.88 3809.41 3117.26 3784.84 3117.26C3720.67 3117.26 3671.17 3098.38 3636.34 3060.61C3601.51 3022.84 3584.09 2971.14 3584.09 2905.51C3584.09 2839.88 3601.14 2787.44 3635.24 2748.21C3669.34 2708.61 3717.56 2688.81 3779.89 2688.81C3805.19 2688.81 3831.41 2692.29 3858.54 2699.26C3885.67 2705.86 3908.04 2717.41 3925.64 2733.91V2826.86H3897.04L3870.09 2735.56C3853.96 2718.33 3823.52 2709.71 3778.79 2709.71C3734.06 2709.71 3701.06 2726.39 3679.79 2759.76C3658.52 2793.13 3647.89 2840.24 3647.89 2901.11C3647.89 3030.54 3693.17 3095.26 3783.74 3095.26C3812.34 3095.26 3844.42 3090.86 3879.99 3082.06V2964.91L3822.24 2952.26V2931.91ZM4024.39 3110.11V3089.76L4073.34 3077.66L4239.99 2693.21H4268.04L4426.44 3077.66L4472.64 3089.76V3110.11H4316.44V3089.76L4364.29 3078.21L4320.84 2971.51H4154.74L4113.49 3078.21L4162.99 3089.76V3110.11H4024.39ZM4162.44 2950.61H4313.14L4236.14 2757.56L4162.44 2950.61ZM4549.66 2697.61H4716.86V2717.96L4662.41 2730.61V3085.91H4803.21L4824.66 3006.16H4853.26V3110.11H4549.66V3089.76L4604.66 3077.11V2731.16L4549.66 2717.96V2697.61ZM2614.73 3462.61H2781.93V3482.96L2726.93 3495.61V3842.66L2781.93 3854.76V3875.11H2614.73V3854.76L2669.18 3842.11V3496.16L2614.73 3482.96V3462.61ZM2945.48 3875.11V3854.76L2998.83 3842.11V3486.26H2898.18L2876.73 3566.56H2848.13V3462.61H3208.93V3566.56H3180.33L3158.88 3486.26H3056.58V3842.66L3112.68 3854.76V3875.11H2945.48ZM3274.83 3462.61H3440.38C3498.68 3462.61 3540.48 3471.96 3565.78 3490.66C3591.08 3508.99 3603.73 3537.96 3603.73 3577.56C3603.73 3625.59 3587.42 3658.04 3554.78 3674.91C3525.82 3689.58 3486.22 3696.91 3435.98 3696.91H3385.93V3842.11L3442.03 3854.76V3875.11H3274.83V3854.76L3328.18 3842.11V3495.61L3274.83 3482.96V3462.61ZM3385.93 3674.91H3447.53C3478.7 3674.91 3501.8 3667.21 3516.83 3651.81C3532.23 3636.41 3539.93 3612.39 3539.93 3579.76C3539.93 3547.13 3532.23 3523.11 3516.83 3507.71C3501.8 3492.31 3478.7 3484.61 3447.53 3484.61H3385.93V3674.91Z" fill="#3B3B3B"/>
<line y1="-9" x2="1254.4" y2="-9" transform="matrix(0.999879 0.0155534 -0.0165433 0.999863 1305.72 3554.51)" stroke="#3B3B3B" stroke-width="18"/>
<line y1="-9" x2="1254.4" y2="-9" transform="matrix(0.999879 0.0155534 -0.0165433 0.999863 3736.01 3573.93)" stroke="#3B3B3B" stroke-width="18"/>
<defs>
<filter id="filter0_d_7_113" x="4150.6" y="1607.23" width="1252.51" height="564.605" filterUnits="userSpaceOnUse" color-interpolation-filters="sRGB">
<feFlood flood-opacity="0" result="BackgroundImageFix"/>
<feColorMatrix in="SourceAlpha" type="matrix" values="0 0 0 0 0 0 0 0 0 0 0 0 0 0 0 0 0 0 127 0" result="hardAlpha"/>
<feOffset dy="4"/>
<feGaussianBlur stdDeviation="2"/>
<feComposite in2="hardAlpha" operator="out"/>
<feColorMatrix type="matrix" values="0 0 0 0 0 0 0 0 0 0 0 0 0 0 0 0 0 0 0.25 0"/>
<feBlend mode="normal" in2="BackgroundImageFix" result="effect1_dropShadow_7_113"/>
<feBlend mode="normal" in="SourceGraphic" in2="effect1_dropShadow_7_113" result="shape"/>
</filter>
<filter id="filter1_d_7_113" x="1582.36" y="120.152" width="2529.91" height="2433.33" filterUnits="userSpaceOnUse" color-interpolation-filters="sRGB">
<feFlood flood-opacity="0" result="BackgroundImageFix"/>
<feColorMatrix in="SourceAlpha" type="matrix" values="0 0 0 0 0 0 0 0 0 0 0 0 0 0 0 0 0 0 127 0" result="hardAlpha"/>
<feOffset dy="4"/>
<feGaussianBlur stdDeviation="2"/>
<feComposite in2="hardAlpha" operator="out"/>
<feColorMatrix type="matrix" values="0 0 0 0 0 0 0 0 0 0 0 0 0 0 0 0 0 0 0.25 0"/>
<feBlend mode="normal" in2="BackgroundImageFix" result="effect1_dropShadow_7_113"/>
<feBlend mode="normal" in="SourceGraphic" in2="effect1_dropShadow_7_113" result="shape"/>
</filter>
<filter id="filter2_d_7_113" x="5397.72" y="1963.02" width="391.873" height="292.957" filterUnits="userSpaceOnUse" color-interpolation-filters="sRGB">
<feFlood flood-opacity="0" result="BackgroundImageFix"/>
<feColorMatrix in="SourceAlpha" type="matrix" values="0 0 0 0 0 0 0 0 0 0 0 0 0 0 0 0 0 0 127 0" result="hardAlpha"/>
<feOffset dy="4"/>
<feGaussianBlur stdDeviation="2"/>
<feComposite in2="hardAlpha" operator="out"/>
<feColorMatrix type="matrix" values="0 0 0 0 0 0 0 0 0 0 0 0 0 0 0 0 0 0 0.25 0"/>
<feBlend mode="normal" in2="BackgroundImageFix" result="effect1_dropShadow_7_113"/>
<feBlend mode="normal" in="SourceGraphic" in2="effect1_dropShadow_7_113" result="shape"/>
</filter>
<filter id="filter3_d_7_113" x="2034.73" y="466.382" width="994.609" height="537.965" filterUnits="userSpaceOnUse" color-interpolation-filters="sRGB">
<feFlood flood-opacity="0" result="BackgroundImageFix"/>
<feColorMatrix in="SourceAlpha" type="matrix" values="0 0 0 0 0 0 0 0 0 0 0 0 0 0 0 0 0 0 127 0" result="hardAlpha"/>
<feOffset dy="4"/>
<feGaussianBlur stdDeviation="2"/>
<feComposite in2="hardAlpha" operator="out"/>
<feColorMatrix type="matrix" values="0 0 0 0 0 0 0 0 0 0 0 0 0 0 0 0 0 0 0.25 0"/>
<feBlend mode="normal" in2="BackgroundImageFix" result="effect1_dropShadow_7_113"/>
<feBlend mode="normal" in="SourceGraphic" in2="effect1_dropShadow_7_113" result="shape"/>
</filter>
<filter id="filter4_d_7_113" x="3113.22" y="529.278" width="302.015" height="204.328" filterUnits="userSpaceOnUse" color-interpolation-filters="sRGB">
<feFlood flood-opacity="0" result="BackgroundImageFix"/>
<feColorMatrix in="SourceAlpha" type="matrix" values="0 0 0 0 0 0 0 0 0 0 0 0 0 0 0 0 0 0 127 0" result="hardAlpha"/>
<feOffset dy="4"/>
<feGaussianBlur stdDeviation="2"/>
<feComposite in2="hardAlpha" operator="out"/>
<feColorMatrix type="matrix" values="0 0 0 0 0 0 0 0 0 0 0 0 0 0 0 0 0 0 0.25 0"/>
<feBlend mode="normal" in2="BackgroundImageFix" result="effect1_dropShadow_7_113"/>
<feBlend mode="normal" in="SourceGraphic" in2="effect1_dropShadow_7_113" result="shape"/>
</filter>
<filter id="filter5_d_7_113" x="3844.12" y="1522.7" width="311.313" height="288.369" filterUnits="userSpaceOnUse" color-interpolation-filters="sRGB">
<feFlood flood-opacity="0" result="BackgroundImageFix"/>
<feColorMatrix in="SourceAlpha" type="matrix" values="0 0 0 0 0 0 0 0 0 0 0 0 0 0 0 0 0 0 127 0" result="hardAlpha"/>
<feOffset dy="4"/>
<feGaussianBlur stdDeviation="2"/>
<feComposite in2="hardAlpha" operator="out"/>
<feColorMatrix type="matrix" values="0 0 0 0 0 0 0 0 0 0 0 0 0 0 0 0 0 0 0.25 0"/>
<feBlend mode="normal" in2="BackgroundImageFix" result="effect1_dropShadow_7_113"/>
<feBlend mode="normal" in="SourceGraphic" in2="effect1_dropShadow_7_113" result="shape"/>
</filter>
</defs>
</svg>
